<svg xmlns="http://www.w3.org/2000/svg" width="192" viewBox="0 0 192 192" height="192" version="1.0"><defs><clipPath id="a"><path d="M 19.199219 18.078125 L 175.199219 18.078125 L 175.199219 174.078125 L 19.199219 174.078125 Z M 19.199219 18.078125"/></clipPath></defs><g clip-path="url(#a)"><path fill="#E91E63" d="M 175.199219 96.078125 C 175.199219 97.355469 175.167969 98.632812 175.105469 99.90625 C 175.042969 101.183594 174.949219 102.453125 174.824219 103.726562 C 174.699219 104.996094 174.542969 106.261719 174.355469 107.523438 C 174.167969 108.789062 173.949219 110.046875 173.703125 111.296875 C 173.453125 112.550781 173.171875 113.792969 172.863281 115.03125 C 172.550781 116.269531 172.210938 117.5 171.839844 118.722656 C 171.472656 119.945312 171.070312 121.15625 170.640625 122.355469 C 170.210938 123.558594 169.75 124.75 169.261719 125.929688 C 168.773438 127.109375 168.257812 128.273438 167.710938 129.429688 C 167.164062 130.582031 166.589844 131.722656 165.988281 132.847656 C 165.386719 133.976562 164.757812 135.085938 164.101562 136.179688 C 163.445312 137.273438 162.765625 138.351562 162.054688 139.414062 C 161.34375 140.476562 160.609375 141.519531 159.851562 142.542969 C 159.089844 143.570312 158.304688 144.574219 157.496094 145.5625 C 156.683594 146.550781 155.851562 147.515625 154.996094 148.460938 C 154.136719 149.40625 153.257812 150.332031 152.355469 151.234375 C 151.453125 152.136719 150.527344 153.015625 149.582031 153.875 C 148.636719 154.730469 147.667969 155.566406 146.683594 156.375 C 145.695312 157.183594 144.691406 157.96875 143.664062 158.730469 C 142.640625 159.492188 141.597656 160.226562 140.535156 160.933594 C 139.472656 161.644531 138.394531 162.328125 137.300781 162.984375 C 136.203125 163.640625 135.09375 164.269531 133.96875 164.871094 C 132.84375 165.472656 131.703125 166.046875 130.550781 166.589844 C 129.394531 167.136719 128.230469 167.652344 127.050781 168.140625 C 125.871094 168.632812 124.679688 169.089844 123.476562 169.519531 C 122.277344 169.949219 121.0625 170.351562 119.84375 170.722656 C 118.621094 171.09375 117.390625 171.433594 116.152344 171.742188 C 114.914062 172.050781 113.667969 172.332031 112.417969 172.582031 C 111.164062 172.832031 109.90625 173.046875 108.644531 173.234375 C 107.382812 173.421875 106.117188 173.578125 104.84375 173.703125 C 103.574219 173.828125 102.300781 173.921875 101.027344 173.984375 C 99.753906 174.046875 98.476562 174.078125 97.199219 174.078125 C 95.921875 174.078125 94.648438 174.046875 93.371094 173.984375 C 92.097656 173.921875 90.824219 173.828125 89.554688 173.703125 C 88.285156 173.578125 87.019531 173.421875 85.753906 173.234375 C 84.492188 173.046875 83.234375 172.832031 81.984375 172.582031 C 80.730469 172.332031 79.484375 172.050781 78.246094 171.742188 C 77.007812 171.433594 75.78125 171.09375 74.558594 170.722656 C 73.335938 170.351562 72.125 169.949219 70.921875 169.519531 C 69.71875 169.089844 68.53125 168.632812 67.351562 168.140625 C 66.171875 167.652344 65.003906 167.136719 63.851562 166.589844 C 62.695312 166.046875 61.558594 165.472656 60.429688 164.871094 C 59.304688 164.269531 58.195312 163.640625 57.101562 162.984375 C 56.003906 162.328125 54.925781 161.644531 53.867188 160.933594 C 52.804688 160.226562 51.761719 159.492188 50.734375 158.730469 C 49.710938 157.96875 48.703125 157.183594 47.71875 156.375 C 46.730469 155.566406 45.765625 154.730469 44.820312 153.875 C 43.871094 153.015625 42.949219 152.136719 42.046875 151.234375 C 41.144531 150.332031 40.261719 149.40625 39.40625 148.460938 C 38.546875 147.515625 37.714844 146.550781 36.90625 145.5625 C 36.09375 144.574219 35.308594 143.570312 34.550781 142.542969 C 33.789062 141.519531 33.054688 140.476562 32.34375 139.414062 C 31.636719 138.351562 30.953125 137.273438 30.296875 136.179688 C 29.640625 135.085938 29.011719 133.976562 28.410156 132.847656 C 27.808594 131.722656 27.234375 130.582031 26.6875 129.429688 C 26.144531 128.273438 25.625 127.109375 25.136719 125.929688 C 24.648438 124.75 24.191406 123.558594 23.757812 122.355469 C 23.328125 121.15625 22.929688 119.945312 22.558594 118.722656 C 22.1875 117.5 21.847656 116.269531 21.539062 115.03125 C 21.226562 113.792969 20.949219 112.550781 20.699219 111.296875 C 20.449219 110.046875 20.230469 108.789062 20.042969 107.523438 C 19.855469 106.261719 19.699219 104.996094 19.574219 103.726562 C 19.449219 102.453125 19.355469 101.183594 19.292969 99.90625 C 19.230469 98.632812 19.199219 97.355469 19.199219 96.078125 C 19.199219 94.804688 19.230469 93.527344 19.292969 92.253906 C 19.355469 90.976562 19.449219 89.703125 19.574219 88.433594 C 19.699219 87.164062 19.855469 85.898438 20.042969 84.636719 C 20.230469 83.371094 20.449219 82.113281 20.699219 80.863281 C 20.949219 79.609375 21.226562 78.367188 21.539062 77.128906 C 21.847656 75.890625 22.1875 74.660156 22.558594 73.4375 C 22.929688 72.214844 23.328125 71.003906 23.757812 69.800781 C 24.191406 68.601562 24.648438 67.410156 25.136719 66.230469 C 25.625 65.050781 26.144531 63.882812 26.6875 62.730469 C 27.234375 61.578125 27.808594 60.4375 28.410156 59.3125 C 29.011719 58.183594 29.640625 57.074219 30.296875 55.980469 C 30.953125 54.886719 31.636719 53.808594 32.34375 52.746094 C 33.054688 51.683594 33.789062 50.640625 34.550781 49.617188 C 35.308594 48.589844 36.09375 47.585938 36.90625 46.597656 C 37.714844 45.609375 38.546875 44.644531 39.40625 43.699219 C 40.261719 42.753906 41.144531 41.828125 42.046875 40.925781 C 42.949219 40.023438 43.871094 39.144531 44.820312 38.285156 C 45.765625 37.429688 46.730469 36.59375 47.71875 35.785156 C 48.703125 34.976562 49.710938 34.191406 50.734375 33.429688 C 51.761719 32.667969 52.804688 31.933594 53.867188 31.226562 C 54.925781 30.515625 56.003906 29.832031 57.101562 29.175781 C 58.195312 28.519531 59.304688 27.890625 60.429688 27.289062 C 61.558594 26.6875 62.695312 26.113281 63.851562 25.570312 C 65.003906 25.023438 66.171875 24.507812 67.351562 24.015625 C 68.53125 23.527344 69.71875 23.070312 70.921875 22.640625 C 72.125 22.210938 73.335938 21.808594 74.558594 21.4375 C 75.78125 21.066406 77.007812 20.726562 78.246094 20.417969 C 79.484375 20.105469 80.730469 19.828125 81.984375 19.578125 C 83.234375 19.328125 84.492188 19.113281 85.753906 18.925781 C 87.019531 18.738281 88.285156 18.582031 89.554688 18.457031 C 90.824219 18.332031 92.097656 18.238281 93.371094 18.175781 C 94.648438 18.109375 95.921875 18.078125 97.199219 18.078125 C 98.476562 18.078125 99.753906 18.109375 101.027344 18.175781 C 102.300781 18.238281 103.574219 18.332031 104.84375 18.457031 C 106.117188 18.582031 107.382812 18.738281 108.644531 18.925781 C 109.90625 19.113281 111.164062 19.328125 112.417969 19.578125 C 113.667969 19.828125 114.914062 20.105469 116.152344 20.417969 C 117.390625 20.726562 118.621094 21.066406 119.84375 21.4375 C 121.0625 21.808594 122.277344 22.210938 123.476562 22.640625 C 124.679688 23.070312 125.871094 23.527344 127.050781 24.015625 C 128.230469 24.507812 129.394531 25.023438 130.550781 25.570312 C 131.703125 26.113281 132.84375 26.6875 133.96875 27.289062 C 135.09375 27.890625 136.203125 28.519531 137.300781 29.175781 C 138.394531 29.832031 139.472656 30.515625 140.535156 31.226562 C 141.597656 31.933594 142.640625 32.667969 143.664062 33.429688 C 144.691406 34.191406 145.695312 34.976562 146.683594 35.785156 C 147.667969 36.59375 148.636719 37.429688 149.582031 38.285156 C 150.527344 39.144531 151.453125 40.023438 152.355469 40.925781 C 153.257812 41.828125 154.136719 42.753906 154.996094 43.699219 C 155.851562 44.644531 156.683594 45.609375 157.496094 46.597656 C 158.304688 47.585938 159.089844 48.589844 159.851562 49.617188 C 160.609375 50.640625 161.34375 51.683594 162.054688 52.746094 C 162.765625 53.808594 163.445312 54.886719 164.101562 55.980469 C 164.757812 57.074219 165.386719 58.183594 165.988281 59.3125 C 166.589844 60.4375 167.164062 61.578125 167.710938 62.730469 C 168.257812 63.882812 168.773438 65.050781 169.261719 66.230469 C 169.75 67.410156 170.210938 68.601562 170.640625 69.800781 C 171.070312 71.003906 171.472656 72.214844 171.839844 73.4375 C 172.210938 74.660156 172.550781 75.890625 172.863281 77.128906 C 173.171875 78.367188 173.453125 79.609375 173.703125 80.863281 C 173.949219 82.113281 174.167969 83.371094 174.355469 84.636719 C 174.542969 85.898438 174.699219 87.164062 174.824219 88.433594 C 174.949219 89.703125 175.042969 90.976562 175.105469 92.253906 C 175.167969 93.527344 175.199219 94.804688 175.199219 96.078125 Z M 175.199219 96.078125"/></g><path fill="#FFF" d="M 103.828125 107.390625 L 92.675781 107.390625 C 86.671875 107.390625 81.757812 102.476562 81.757812 96.46875 L 81.757812 61.761719 C 81.757812 55.753906 86.671875 50.839844 92.675781 50.839844 L 103.828125 50.839844 C 109.835938 50.839844 114.75 55.753906 114.75 61.761719 L 114.75 96.46875 C 114.75 102.476562 109.835938 107.390625 103.828125 107.390625 Z M 103.828125 107.390625"/><path fill="#FFF" d="M 98.214844 120.648438 C 81.910156 120.648438 68.027344 107.3125 67.949219 90.230469 C 67.949219 88.359375 69.433594 86.796875 71.382812 86.796875 C 73.253906 86.796875 74.8125 88.28125 74.8125 90.230469 C 74.890625 103.566406 85.578125 114.332031 98.214844 114.332031 C 110.851562 114.332031 121.613281 102.867188 121.691406 89.917969 C 121.691406 88.046875 123.253906 86.796875 125.125 86.796875 C 126.996094 86.796875 128.554688 87.8125 128.554688 89.683594 C 128.476562 106.609375 114.828125 120.648438 98.214844 120.648438 Z M 98.214844 120.648438"/><path fill="#FFF" d="M 98.292969 138.824219 C 96.496094 138.824219 95.09375 136.875 95.09375 135.078125 L 95.015625 117.453125 C 95.015625 115.65625 96.421875 114.644531 98.214844 114.644531 C 100.007812 114.644531 101.410156 115.425781 101.410156 117.140625 L 101.488281 135.390625 C 101.488281 137.1875 100.007812 138.824219 98.292969 138.824219 Z M 98.292969 138.824219"/><path fill="#FFF" d="M 114.203125 141.945312 L 81.988281 141.945312 C 80.507812 141.945312 79.339844 140.851562 79.339844 139.214844 C 79.339844 137.574219 80.507812 136.484375 81.988281 136.484375 L 114.203125 136.484375 C 115.6875 136.484375 116.855469 137.574219 116.855469 139.214844 C 116.855469 140.851562 115.6875 141.945312 114.203125 141.945312 Z M 114.203125 141.945312"/></svg>