<svg xmlns="http://www.w3.org/2000/svg" width="375" viewBox="0 0 375 375" height="375" version="1.0"><path fill="#033E8C" d="M 52.144531 151.71875 C 42.265625 151.71875 34.253906 159.730469 34.253906 169.609375 C 34.253906 179.492188 42.265625 187.5 52.144531 187.5 L 70.035156 187.5 L 70.035156 169.609375 C 70.039062 159.730469 62.027344 151.71875 52.144531 151.71875 Z M 52.144531 151.71875"/><path fill="#033E8C" d="M 87.914062 223.269531 C 97.796875 223.269531 105.804688 215.261719 105.804688 205.378906 C 105.804688 195.5 97.796875 187.488281 87.914062 187.488281 L 70.027344 187.488281 L 70.027344 205.378906 C 70.023438 215.261719 78.035156 223.269531 87.914062 223.269531 Z M 87.914062 223.269531"/><g fill="#033E8C"><g><g><path d="M 10.5 -26.15625 L 0.1875 -26.15625 L 0.1875 -32.25 L 28.28125 -32.25 L 28.28125 -26.15625 L 17.96875 -26.15625 L 17.96875 0 L 10.5 0 Z M 10.5 -26.15625" transform="translate(113.551 195.683)"/></g></g></g><g fill="#033E8C"><g><g><path d="M 19.4375 0.546875 C 16.09375 0.546875 13.078125 -0.171875 10.390625 -1.609375 C 7.703125 -3.054688 5.597656 -5.046875 4.078125 -7.578125 C 2.554688 -10.109375 1.796875 -12.957031 1.796875 -16.125 C 1.796875 -19.28125 2.554688 -22.125 4.078125 -24.65625 C 5.597656 -27.195312 7.703125 -29.1875 10.390625 -30.625 C 13.078125 -32.070312 16.09375 -32.796875 19.4375 -32.796875 C 22.78125 -32.796875 25.785156 -32.070312 28.453125 -30.625 C 31.128906 -29.1875 33.234375 -27.195312 34.765625 -24.65625 C 36.304688 -22.125 37.078125 -19.28125 37.078125 -16.125 C 37.078125 -12.957031 36.304688 -10.109375 34.765625 -7.578125 C 33.234375 -5.046875 31.128906 -3.054688 28.453125 -1.609375 C 25.785156 -0.171875 22.78125 0.546875 19.4375 0.546875 Z M 19.4375 -5.796875 C 21.34375 -5.796875 23.0625 -6.234375 24.59375 -7.109375 C 26.132812 -7.984375 27.34375 -9.203125 28.21875 -10.765625 C 29.09375 -12.335938 29.53125 -14.125 29.53125 -16.125 C 29.53125 -18.113281 29.09375 -19.890625 28.21875 -21.453125 C 27.34375 -23.023438 26.132812 -24.25 24.59375 -25.125 C 23.0625 -26 21.34375 -26.4375 19.4375 -26.4375 C 17.53125 -26.4375 15.804688 -26 14.265625 -25.125 C 12.734375 -24.25 11.53125 -23.023438 10.65625 -21.453125 C 9.78125 -19.890625 9.34375 -18.113281 9.34375 -16.125 C 9.34375 -14.125 9.78125 -12.335938 10.65625 -10.765625 C 11.53125 -9.203125 12.734375 -7.984375 14.265625 -7.109375 C 15.804688 -6.234375 17.53125 -5.796875 19.4375 -5.796875 Z M 19.4375 -5.796875" transform="translate(142.015 195.683)"/></g></g></g><g fill="#033E8C"><g><g><path d="M 3.828125 -32.25 L 18.46875 -32.25 C 21.96875 -32.25 25.0625 -31.578125 27.75 -30.234375 C 30.4375 -28.898438 32.523438 -27.019531 34.015625 -24.59375 C 35.503906 -22.164062 36.25 -19.34375 36.25 -16.125 C 36.25 -12.894531 35.503906 -10.066406 34.015625 -7.640625 C 32.523438 -5.210938 30.4375 -3.332031 27.75 -2 C 25.0625 -0.664062 21.96875 0 18.46875 0 L 3.828125 0 Z M 18.109375 -6.125 C 21.328125 -6.125 23.894531 -7.019531 25.8125 -8.8125 C 27.738281 -10.613281 28.703125 -13.050781 28.703125 -16.125 C 28.703125 -19.195312 27.738281 -21.628906 25.8125 -23.421875 C 23.894531 -25.222656 21.328125 -26.125 18.109375 -26.125 L 11.28125 -26.125 L 11.28125 -6.125 Z M 18.109375 -6.125" transform="translate(180.887 195.683)"/></g></g></g><g fill="#033E8C"><g><g><path d="M 19.4375 0.546875 C 16.09375 0.546875 13.078125 -0.171875 10.390625 -1.609375 C 7.703125 -3.054688 5.597656 -5.046875 4.078125 -7.578125 C 2.554688 -10.109375 1.796875 -12.957031 1.796875 -16.125 C 1.796875 -19.28125 2.554688 -22.125 4.078125 -24.65625 C 5.597656 -27.195312 7.703125 -29.1875 10.390625 -30.625 C 13.078125 -32.070312 16.09375 -32.796875 19.4375 -32.796875 C 22.78125 -32.796875 25.785156 -32.070312 28.453125 -30.625 C 31.128906 -29.1875 33.234375 -27.195312 34.765625 -24.65625 C 36.304688 -22.125 37.078125 -19.28125 37.078125 -16.125 C 37.078125 -12.957031 36.304688 -10.109375 34.765625 -7.578125 C 33.234375 -5.046875 31.128906 -3.054688 28.453125 -1.609375 C 25.785156 -0.171875 22.78125 0.546875 19.4375 0.546875 Z M 19.4375 -5.796875 C 21.34375 -5.796875 23.0625 -6.234375 24.59375 -7.109375 C 26.132812 -7.984375 27.34375 -9.203125 28.21875 -10.765625 C 29.09375 -12.335938 29.53125 -14.125 29.53125 -16.125 C 29.53125 -18.113281 29.09375 -19.890625 28.21875 -21.453125 C 27.34375 -23.023438 26.132812 -24.25 24.59375 -25.125 C 23.0625 -26 21.34375 -26.4375 19.4375 -26.4375 C 17.53125 -26.4375 15.804688 -26 14.265625 -25.125 C 12.734375 -24.25 11.53125 -23.023438 10.65625 -21.453125 C 9.78125 -19.890625 9.34375 -18.113281 9.34375 -16.125 C 9.34375 -14.125 9.78125 -12.335938 10.65625 -10.765625 C 11.53125 -9.203125 12.734375 -7.984375 14.265625 -7.109375 C 15.804688 -6.234375 17.53125 -5.796875 19.4375 -5.796875 Z M 19.4375 -5.796875" transform="translate(218.93 195.683)"/></g></g></g><g fill="#033E8C"><g><g><path d="M 3.828125 -32.25 L 11.28125 -32.25 L 11.28125 -6.078125 L 27.453125 -6.078125 L 27.453125 0 L 3.828125 0 Z M 3.828125 -32.25" transform="translate(257.803 195.683)"/></g></g></g><g fill="#033E8C"><g><g><path d="M 19.296875 -11.421875 L 19.296875 0 L 11.84375 0 L 11.84375 -11.515625 L -0.640625 -32.25 L 7.28125 -32.25 L 15.890625 -17.921875 L 24.5 -32.25 L 31.828125 -32.25 Z M 19.296875 -11.421875" transform="translate(285.621 195.683)"/></g></g></g><g fill="#66C8D7"><g><g><path d="M 13.890625 -11.59375 L 13.890625 0 L 11.5625 0 L 11.5625 -7.328125 L 8.40625 0 L 6.734375 0 L 3.59375 -7.296875 L 3.59375 0 L 1.25 0 L 1.25 -11.59375 L 3.859375 -11.59375 L 7.578125 -3 L 11.296875 -11.59375 Z M 13.890625 -11.59375" transform="translate(121.002 214.069)"/></g></g></g><g fill="#66C8D7"><g><g><path d="M 8.859375 0 L 8.109375 -2.171875 L 3.59375 -2.171875 L 2.84375 0 L 0.359375 0 L 4.46875 -11.625 L 7.234375 -11.625 L 11.328125 0 Z M 4.203125 -3.96875 L 7.5 -3.96875 L 5.84375 -8.796875 Z M 4.203125 -3.96875" transform="translate(139.116 214.069)"/></g></g></g><g fill="#66C8D7"><g><g><path d="M 3.59375 0 L 1.25 0 L 1.25 -11.59375 L 3.59375 -11.59375 L 3.59375 -6.40625 L 7.765625 -11.59375 L 10.828125 -11.59375 L 5.796875 -5.78125 L 10.828125 0 L 7.796875 0 L 3.59375 -5.15625 Z M 3.59375 0" transform="translate(153.811 214.069)"/></g></g></g><g fill="#66C8D7"><g><g><path d="M 7.9375 -11.625 L 7.9375 -9.828125 L 3.59375 -9.828125 L 3.59375 -6.796875 L 7.4375 -6.796875 L 7.4375 -5 L 3.59375 -5 L 3.59375 -1.796875 L 7.9375 -1.796875 L 7.9375 0 L 1.25 0 L 1.25 -11.625 Z M 7.9375 -11.625" transform="translate(167.991 214.069)"/></g></g></g><g fill="#66C8D7"><g><g><path d="M 1.25 -11.59375 L 3.59375 -11.59375 L 3.59375 -1.78125 L 7.3125 -1.78125 L 7.3125 0 L 1.25 0 Z M 1.25 -11.59375" transform="translate(188.034 214.069)"/></g></g></g><g fill="#66C8D7"><g><g><path d="M 1.25 0 L 1.25 -11.59375 L 3.59375 -11.59375 L 3.59375 0 Z M 1.25 0" transform="translate(198.661 214.069)"/></g></g></g><g fill="#66C8D7"><g><g><path d="M 1.25 0 L 1.25 -11.59375 L 8.421875 -11.59375 L 8.421875 -9.796875 L 3.59375 -9.796875 L 3.59375 -6.765625 L 7.28125 -6.765625 L 7.28125 -4.96875 L 3.59375 -4.96875 L 3.59375 0 Z M 1.25 0" transform="translate(206.483 214.069)"/></g></g></g><g fill="#66C8D7"><g><g><path d="M 7.9375 -11.625 L 7.9375 -9.828125 L 3.59375 -9.828125 L 3.59375 -6.796875 L 7.4375 -6.796875 L 7.4375 -5 L 3.59375 -5 L 3.59375 -1.796875 L 7.9375 -1.796875 L 7.9375 0 L 1.25 0 L 1.25 -11.625 Z M 7.9375 -11.625" transform="translate(218.489 214.069)"/></g></g></g><g fill="#66C8D7"><g><g><path d="M 7.9375 -11.625 L 7.9375 -9.828125 L 3.59375 -9.828125 L 3.59375 -6.796875 L 7.4375 -6.796875 L 7.4375 -5 L 3.59375 -5 L 3.59375 -1.796875 L 7.9375 -1.796875 L 7.9375 0 L 1.25 0 L 1.25 -11.625 Z M 7.9375 -11.625" transform="translate(238.532 214.069)"/></g></g></g><g fill="#66C8D7"><g><g><path d="M 8.859375 0 L 8.109375 -2.171875 L 3.59375 -2.171875 L 2.84375 0 L 0.359375 0 L 4.46875 -11.625 L 7.234375 -11.625 L 11.328125 0 Z M 4.203125 -3.96875 L 7.5 -3.96875 L 5.84375 -8.796875 Z M 4.203125 -3.96875" transform="translate(250.603 214.069)"/></g></g></g><g fill="#66C8D7"><g><g><path d="M 5 -9.875 C 4.53125 -9.875 4.148438 -9.753906 3.859375 -9.515625 C 3.566406 -9.285156 3.421875 -8.957031 3.421875 -8.53125 C 3.421875 -8.113281 3.523438 -7.785156 3.734375 -7.546875 C 3.953125 -7.304688 4.238281 -7.125 4.59375 -7 C 4.945312 -6.875 5.332031 -6.757812 5.75 -6.65625 C 6.175781 -6.5625 6.597656 -6.441406 7.015625 -6.296875 C 7.441406 -6.148438 7.832031 -5.972656 8.1875 -5.765625 C 8.539062 -5.554688 8.828125 -5.25 9.046875 -4.84375 C 9.265625 -4.4375 9.375 -3.945312 9.375 -3.375 C 9.375 -2.414062 8.992188 -1.59375 8.234375 -0.90625 C 7.472656 -0.226562 6.460938 0.109375 5.203125 0.109375 C 3.953125 0.109375 2.9375 -0.179688 2.15625 -0.765625 C 1.382812 -1.359375 1 -2.191406 1 -3.265625 L 3.484375 -3.265625 C 3.578125 -2.253906 4.160156 -1.75 5.234375 -1.75 C 5.765625 -1.75 6.179688 -1.882812 6.484375 -2.15625 C 6.796875 -2.4375 6.953125 -2.804688 6.953125 -3.265625 C 6.953125 -3.722656 6.75 -4.082031 6.34375 -4.34375 C 5.9375 -4.613281 5.441406 -4.816406 4.859375 -4.953125 C 4.273438 -5.085938 3.6875 -5.25 3.09375 -5.4375 C 2.507812 -5.625 2.015625 -5.953125 1.609375 -6.421875 C 1.203125 -6.890625 1 -7.507812 1 -8.28125 C 1 -9.332031 1.378906 -10.175781 2.140625 -10.8125 C 2.898438 -11.445312 3.878906 -11.765625 5.078125 -11.765625 C 6.285156 -11.765625 7.253906 -11.488281 7.984375 -10.9375 C 8.710938 -10.382812 9.113281 -9.550781 9.1875 -8.4375 L 6.625 -8.4375 C 6.582031 -8.882812 6.414062 -9.234375 6.125 -9.484375 C 5.84375 -9.742188 5.46875 -9.875 5 -9.875 Z M 5 -9.875" transform="translate(265.298 214.069)"/></g></g></g><g fill="#66C8D7"><g><g><path d="M 1.25 0 L 1.25 -11.59375 L 3.59375 -11.59375 L 3.59375 0 Z M 1.25 0" transform="translate(278.648 214.069)"/></g></g></g><g fill="#66C8D7"><g><g><path d="M 7.9375 -11.625 L 7.9375 -9.828125 L 3.59375 -9.828125 L 3.59375 -6.796875 L 7.4375 -6.796875 L 7.4375 -5 L 3.59375 -5 L 3.59375 -1.796875 L 7.9375 -1.796875 L 7.9375 0 L 1.25 0 L 1.25 -11.625 Z M 7.9375 -11.625" transform="translate(286.47 214.069)"/></g></g></g><g fill="#66C8D7"><g><g><path d="M 3.59375 -4.625 L 3.59375 0 L 1.25 0 L 1.25 -11.59375 L 5.515625 -11.59375 C 6.859375 -11.59375 7.890625 -11.253906 8.609375 -10.578125 C 9.335938 -9.910156 9.703125 -9.085938 9.703125 -8.109375 C 9.703125 -7.378906 9.476562 -6.695312 9.03125 -6.0625 C 8.59375 -5.425781 7.894531 -4.992188 6.9375 -4.765625 L 9.90625 0 L 7.125 0 L 4.359375 -4.625 Z M 3.59375 -9.796875 L 3.59375 -6.40625 L 5.515625 -6.40625 C 6.097656 -6.40625 6.546875 -6.554688 6.859375 -6.859375 C 7.171875 -7.171875 7.328125 -7.585938 7.328125 -8.109375 C 7.328125 -8.628906 7.171875 -9.039062 6.859375 -9.34375 C 6.546875 -9.644531 6.097656 -9.796875 5.515625 -9.796875 Z M 3.59375 -9.796875" transform="translate(298.542 214.069)"/></g></g></g></svg>